<?xml version="1.0" encoding="utf-8"?>
<!-- Generator: Adobe Illustrator 22.1.0, SVG Export Plug-In . SVG Version: 6.00 Build 0)  -->
<svg version="1.1" xmlns="http://www.w3.org/2000/svg" xmlns:xlink="http://www.w3.org/1999/xlink" x="0px" y="0px" width="26px"
	 height="26px" viewBox="0 0 26 26" enable-background="new 0 0 26 26" xml:space="preserve">
<g id="gray40" display="none">
	<path display="inline" fill="#282828" d="M21,10c-0.6,0-1,0.4-1,1v13H2V6h13c0.6,0,1-0.4,1-1s-0.4-1-1-1H1C0.4,4,0,4.4,0,5v20
		c0,0.6,0.4,1,1,1h20c0.6,0,1-0.4,1-1V11C22,10.4,21.6,10,21,10z M25,0h-6c-0.6,0-1,0.4-1,1s0.4,1,1,1h3.6L12.3,12.3
		c-0.4,0.4-0.4,1,0,1.4c0.2,0.2,0.5,0.3,0.7,0.3c0.3,0,0.5-0.1,0.7-0.3L24,3.4V7c0,0.6,0.4,1,1,1s1-0.4,1-1V1C26,0.4,25.6,0,25,0z"
		/>
</g>
<g id="gray80" display="none">
</g>
<g id="gray180" display="none">
</g>
<g id="gray230" display="none">
</g>
<g id="white">
	<path fill="#FFFFFF" d="M21,10c-0.6,0-1,0.4-1,1v13H2V6h13c0.6,0,1-0.4,1-1s-0.4-1-1-1H1C0.4,4,0,4.4,0,5v20c0,0.6,0.4,1,1,1h20
		c0.6,0,1-0.4,1-1V11C22,10.4,21.6,10,21,10z M25,0h-6c-0.6,0-1,0.4-1,1s0.4,1,1,1h3.6L12.3,12.3c-0.4,0.4-0.4,1,0,1.4
		c0.2,0.2,0.5,0.3,0.7,0.3c0.3,0,0.5-0.1,0.7-0.3L24,3.4V7c0,0.6,0.4,1,1,1s1-0.4,1-1V1C26,0.4,25.6,0,25,0z"/>
</g>
<g id="red" display="none">
</g>
</svg>
