<?xml version="1.0" encoding="utf-8"?>
<!-- Generator: Adobe Illustrator 22.1.0, SVG Export Plug-In . SVG Version: 6.00 Build 0)  -->
<svg version="1.1" xmlns="http://www.w3.org/2000/svg" xmlns:xlink="http://www.w3.org/1999/xlink" x="0px" y="0px" width="26px"
	 height="26px" viewBox="0 0 26 26" enable-background="new 0 0 26 26" xml:space="preserve">
<g id="gray40">
	<g id="Ebene_1_31_">
		<path fill="#282828" d="M25.7,12.3l-12-12c-0.4-0.4-1-0.4-1.4,0L7,5.6V4c0-0.6-0.4-1-1-1S5,3.4,5,4v3.6l-4.7,4.7
			c-0.4,0.4-0.4,1,0,1.4c0.4,0.4,1,0.4,1.4,0L3,12.4V25c0,0.6,0.4,1,1,1h18c0.6,0,1-0.4,1-1V12.4l1.3,1.3c0.2,0.2,0.5,0.3,0.7,0.3
			c0.3,0,0.5-0.1,0.7-0.3C26.1,13.3,26.1,12.7,25.7,12.3z M21,24H5V10.4l8-8l8,8V24z"/>
	</g>
</g>
<g id="gray80" display="none">
</g>
<g id="gray180" display="none">
</g>
<g id="gray230" display="none">
</g>
<g id="white" display="none">
</g>
<g id="red" display="none">
</g>
</svg>
