<?xml version="1.0" encoding="utf-8"?>
<!-- Generator: Adobe Illustrator 22.1.0, SVG Export Plug-In . SVG Version: 6.00 Build 0)  -->
<svg version="1.1" xmlns="http://www.w3.org/2000/svg" xmlns:xlink="http://www.w3.org/1999/xlink" x="0px" y="0px" width="26px"
	 height="26px" viewBox="0 0 26 26" enable-background="new 0 0 26 26" xml:space="preserve">
<g id="gray40">
	<g id="Ebene_1_32_">
		<g>
			<path fill="#282828" d="M13,14c3.9,0,7-3.1,7-7s-3.1-7-7-7S6,3.1,6,7S9.1,14,13,14z M13,2c2.8,0,5,2.2,5,5s-2.2,5-5,5S8,9.8,8,7
				S10.2,2,13,2z"/>
			<path fill="#282828" d="M19.8,13.9c-0.4-0.2-0.8-0.2-1.2,0.1c-1.6,1.3-3.6,2-5.7,2s-4-0.7-5.7-2c-0.3-0.3-0.8-0.3-1.2-0.1
				C2.3,16.3,0,20.5,0,25c0,0.6,0.4,1,1,1h24c0.6,0,1-0.4,1-1C26,20.5,23.7,16.3,19.8,13.9z M2,24c0.3-3.2,2-6.1,4.6-8
				c1.8,1.3,4.1,2,6.3,2s4.5-0.7,6.3-2c2.7,1.9,4.3,4.8,4.6,8H2z"/>
		</g>
	</g>
</g>
<g id="gray80" display="none">
</g>
<g id="gray180" display="none">
</g>
<g id="gray230" display="none">
</g>
<g id="white" display="none">
</g>
<g id="red" display="none">
</g>
</svg>
