<?xml version="1.0" encoding="utf-8"?>
<!-- Generator: Adobe Illustrator 22.0.1, SVG Export Plug-In . SVG Version: 6.00 Build 0)  -->
<svg version="1.1" id="Layer_1" xmlns="http://www.w3.org/2000/svg" xmlns:xlink="http://www.w3.org/1999/xlink" x="0px" y="0px"
	 width="178px" height="40px" viewBox="0 0 178 40" enable-background="new 0 0 178 40" xml:space="preserve">
<path fill="#FFFFFF" d="M59.8,8.9h9.4c1.3,0,2.5,0.2,3.5,0.6c1,0.4,1.9,0.9,2.6,1.6c0.7,0.7,1.2,1.5,1.6,2.4
	c0.4,0.9,0.5,1.9,0.5,2.9c0,1.4-0.3,2.7-0.9,3.8s-1.5,2-2.6,2.7l4.1,7.9h-5.8l-3.1-6.6H65v6.6h-5.2V8.9z M65,13.7v5.8h3.8
	c1.1,0,1.9-0.3,2.5-0.9c0.5-0.6,0.8-1.3,0.8-2.1c0-0.9-0.3-1.6-0.8-2.1s-1.4-0.8-2.5-0.8H65z M92.2,31.1c-1.6,0-3-0.3-4.4-0.9
	c-1.4-0.6-2.5-1.4-3.6-2.4c-1-1-1.8-2.2-2.4-3.6c-0.6-1.4-0.9-2.8-0.9-4.4s0.3-3,0.9-4.4s1.4-2.5,2.4-3.6c1-1,2.2-1.8,3.6-2.4
	c1.4-0.6,2.8-0.9,4.4-0.9s3,0.3,4.4,0.9c1.4,0.6,2.5,1.4,3.6,2.4c1,1,1.8,2.2,2.4,3.6c0.6,1.4,0.9,2.8,0.9,4.4s-0.3,3-0.9,4.4
	c-0.6,1.4-1.4,2.6-2.4,3.6c-1,1-2.2,1.8-3.6,2.4C95.3,30.8,93.8,31.1,92.2,31.1z M92.2,26c0.9,0,1.7-0.2,2.4-0.5
	c0.7-0.3,1.4-0.8,1.9-1.3c0.5-0.6,0.9-1.2,1.2-1.9c0.3-0.7,0.4-1.5,0.4-2.4s-0.1-1.6-0.4-2.4c-0.3-0.7-0.7-1.4-1.3-2
	c-0.5-0.6-1.2-1-1.9-1.3c-0.7-0.3-1.5-0.5-2.4-0.5s-1.6,0.2-2.4,0.5c-0.7,0.3-1.4,0.8-1.9,1.3c-0.5,0.6-0.9,1.2-1.2,2
	c-0.3,0.7-0.5,1.5-0.5,2.4s0.1,1.6,0.4,2.4c0.3,0.7,0.7,1.4,1.2,1.9c0.5,0.6,1.2,1,1.9,1.3C90.6,25.8,91.4,26,92.2,26z M118.2,31.1
	c-1.6,0-3-0.3-4.4-0.9c-1.4-0.6-2.5-1.4-3.6-2.4c-1-1-1.8-2.2-2.4-3.6c-0.6-1.4-0.9-2.8-0.9-4.4s0.3-3,0.9-4.4s1.4-2.5,2.4-3.6
	c1-1,2.2-1.8,3.6-2.4c1.4-0.6,2.8-0.9,4.4-0.9c1.6,0,3,0.3,4.4,0.9c1.4,0.6,2.5,1.4,3.6,2.4c1,1,1.8,2.2,2.4,3.6s0.9,2.8,0.9,4.4
	s-0.3,3-0.9,4.4c-0.6,1.4-1.4,2.6-2.4,3.6c-1,1-2.2,1.8-3.6,2.4C121.3,30.8,119.8,31.1,118.2,31.1z M118.2,26c0.9,0,1.7-0.2,2.4-0.5
	c0.7-0.3,1.4-0.8,1.9-1.3c0.5-0.6,0.9-1.2,1.2-1.9c0.3-0.7,0.5-1.5,0.5-2.4s-0.2-1.6-0.5-2.4c-0.3-0.7-0.7-1.4-1.3-2
	c-0.5-0.6-1.2-1-1.9-1.3c-0.7-0.3-1.5-0.5-2.4-0.5s-1.6,0.2-2.4,0.5c-0.7,0.3-1.4,0.8-1.9,1.3c-0.5,0.6-0.9,1.2-1.2,2
	c-0.3,0.7-0.5,1.5-0.5,2.4s0.1,1.6,0.4,2.4c0.3,0.7,0.7,1.4,1.2,1.9c0.5,0.6,1.2,1,1.9,1.3C116.6,25.8,117.4,26,118.2,26z M134,8.9
	h5l5.9,8.2l6.1-8.2h4.8v21.9h-5.1V16.9l-5.8,7.8l-5.7-7.7v13.9H134V8.9z M169.1,31.1c-1.2,0-2.3-0.1-3.3-0.3s-1.8-0.5-2.6-0.9
	s-1.5-0.9-2.1-1.4s-1.2-1.1-1.7-1.7l4.5-3.6c0.6,1,1.4,1.7,2.3,2.3s1.9,0.8,3.2,0.8c0.9,0,1.6-0.2,2-0.6c0.5-0.4,0.7-0.9,0.7-1.5
	c0-0.4-0.1-0.7-0.3-0.9s-0.5-0.5-0.8-0.6c-0.4-0.2-0.9-0.3-1.4-0.5c-0.6-0.2-1.2-0.3-2-0.5c-0.8-0.2-1.6-0.4-2.4-0.7
	c-0.8-0.3-1.6-0.6-2.2-1.1c-0.7-0.5-1.2-1.1-1.6-1.8s-0.6-1.7-0.6-2.8c0-1,0.2-1.8,0.6-2.7c0.4-0.8,0.9-1.5,1.7-2.1
	c0.7-0.6,1.5-1.1,2.5-1.4c1-0.3,2.1-0.5,3.2-0.5c1,0,1.9,0.1,2.7,0.3s1.6,0.4,2.3,0.8c0.7,0.3,1.3,0.7,2,1.2c0.6,0.5,1.2,1,1.8,1.7
	l-4.2,3.3c-0.5-0.8-1.2-1.5-1.9-1.9c-0.7-0.5-1.7-0.7-2.8-0.7c-0.9,0-1.6,0.2-2,0.6c-0.4,0.4-0.6,0.9-0.6,1.3c0,0.3,0.1,0.6,0.3,0.8
	s0.5,0.4,0.9,0.6c0.4,0.2,0.9,0.3,1.4,0.4s1.2,0.3,1.8,0.4c0.8,0.2,1.6,0.4,2.5,0.7c0.8,0.3,1.6,0.6,2.3,1.1
	c0.7,0.5,1.3,1.1,1.7,1.9c0.4,0.8,0.7,1.7,0.7,2.9c0,1-0.2,2-0.6,2.9s-1,1.6-1.7,2.3c-0.7,0.6-1.6,1.1-2.6,1.5
	S170.3,31.1,169.1,31.1z M10,40H0V20h10V40z M34,0H24v20h10V0z M22,0H12v40h10V0z"/>
</svg>
