<?xml version="1.0" encoding="utf-8"?>
<!-- Generator: Adobe Illustrator 22.1.0, SVG Export Plug-In . SVG Version: 6.00 Build 0)  -->
<svg version="1.1" xmlns="http://www.w3.org/2000/svg" xmlns:xlink="http://www.w3.org/1999/xlink" x="0px" y="0px" width="26px"
	 height="26px" viewBox="0 0 26 26" enable-background="new 0 0 26 26" xml:space="preserve">
<g id="gray40">
	<g id="Ebene_1">
		<g>
			<path fill="#282828" d="M25.4,5.1C25,4.9,24.6,5,24.3,5.3L19,10.6V6c0-0.6-0.4-1-1-1H1C0.4,5,0,5.4,0,6v14c0,0.6,0.4,1,1,1h17
				c0.6,0,1-0.4,1-1v-4.6l5.3,5.3c0.2,0.2,0.4,0.3,0.7,0.3c0.1,0,0.3,0,0.4-0.1c0.4-0.2,0.6-0.5,0.6-0.9V6C26,5.6,25.8,5.2,25.4,5.1
				z M17,19H2V7h15V19z M24,17.6L19.4,13L24,8.4V17.6z"/>
			<path fill="#282828" d="M6,9H4c-0.6,0-1,0.4-1,1s0.4,1,1,1h2c0.6,0,1-0.4,1-1S6.6,9,6,9z"/>
		</g>
	</g>
</g>
<g id="gray80" display="none">
</g>
<g id="gray180" display="none">
</g>
<g id="gray230" display="none">
</g>
<g id="white" display="none">
</g>
<g id="red" display="none">
</g>
</svg>
